# xmcd
#
# Track frame offsets:
# 225
# 8462
# 16987
# 28075
# 36137
# 47212
# 59800
# 77037
# 91537
# 104975
# 112737
# 124762
# 133675
# 147112
# 162775
# 173687
# 190175
# 201725
# 217212
# 229450
# 245312
# 256712
# 273425
# 280112
# 287562
# 297762
# 305562
#
# Disc length: 4167 seconds
#
# Revision: 1
# Processed by: cddbd v1.5.2PL0 Copyright (c) Steve Scherf et al.
# Submitted via: plextools 2.33
#
DISCID=8b10441b
DTITLE=Stephen Coombs - Arensky: Piano Music
DYEAR=1998
DGENRE=Classical
TTITLE0=Stephen Coombs - Arensky: 6 Caprices, Op. 43 - #1 Moderato In A Minor
TTITLE1=Stephen Coombs - Arensky: 6 Caprices, Op. 43 - #2 Vivace In A
TTITLE2=Stephen Coombs - Arensky: 6 Caprices, Op. 43 - #3 Andante Sostenuto In C
TTITLE3=Stephen Coombs - Arensky: 6 Caprices, Op. 43 - #4 Allegro In G
TTITLE4=Stephen Coombs - Arensky: 6 Caprices, Op. 43 - #5 Andante In D
TTITLE5=Stephen Coombs - Arensky: 6 Caprices, Op. 43 - #6 Allegro Moderato In B
TTITLE6=Stephen Coombs - Arensky: 6 Pièces, Op. 53 - #1 Prélude: Largo
TTITLE7=Stephen Coombs - Arensky: 6 Pièces, Op. 53 - #2 Scherzo: Allegro
TTITLE8=Stephen Coombs - Arensky: 6 Pièces, Op. 53 - #3 Élégie: Allegro Non Troppo
TTITLE9=Stephen Coombs - Arensky: 6 Pièces, Op. 53 - #4 Mazurka: Tempo Di Mazurka
TTITLE10=Stephen Coombs - Arensky: 6 Pièces, Op. 53 - #5 Romance: Andante
TTITLE11=Stephen Coombs - Arensky: 6 Pièces, Op. 53 - #6 Étude: Allegro
TTITLE12=Stephen Coombs - Arensky: 24 Characteristic Pieces, Op. 36 - #03 Nocturne: Andante Sostenuto
TTITLE13=Stephen Coombs - Arensky: 24 Characteristic Pieces, Op. 36 - #15 Le Ruisseau Dans La Forêt: Allegro Moderato
TTITLE14=Stephen Coombs - Arensky: 24 Characteristic Pieces, Op. 36 - #20 Mazurka: Allegro Moderato
TTITLE15=Stephen Coombs - Arensky: 24 Characteristic Pieces, Op. 36 - #16 Élégie: Adagio Non Troppo
TTITLE16=Stephen Coombs - Arensky: 24 Characteristic Pieces, Op. 36 - #13 Étude: Moderato
TTITLE17=Stephen Coombs - Arensky: Près De La Mer, Op. 52, "6 Esquisses" - #4 Allegro Moderato In G Flat
TTITLE18=Stephen Coombs - Arensky: Près De La Mer, Op. 52, "6 Esquisses" - #5 Allegro Scherzando In E Flat Minor
TTITLE19=Stephen Coombs - Arensky: 4 Morceaux, Op. 25 - #1 Impromptu: Andante Sostenuto
TTITLE20=Stephen Coombs - Arensky: 4 Morceaux, Op. 25 - #2 Rêverie: Andantino
TTITLE21=Stephen Coombs - Arensky: 4 Morceaux, Op. 25 - #3 Étude On A Chinese Theme: Presto
TTITLE22=Stephen Coombs - Arensky: 4 Morceaux, Op. 25 - #4 Scherzino: Allegro Molto
TTITLE23=Stephen Coombs - Arensky: 4 Études, Op. 41 - #1 Allego Molto In E Flat
TTITLE24=Stephen Coombs - Arensky: 4 Études, Op. 41 - #2 Allegro Vivace In F Sharp
TTITLE25=Stephen Coombs - Arensky: 4 Études, Op. 41 - #3 Allegro In E Flat Minor
TTITLE26=Stephen Coombs - Arensky: 4 Études, Op. 41 - #4 Allegro Molto In A Minor
EXTD=Hyperion CDA67066 - Helios CDH55311
EXTT0=
EXTT1=
EXTT2=
EXTT3=
EXTT4=
EXTT5=
EXTT6=
EXTT7=
EXTT8=
EXTT9=
EXTT10=
EXTT11=
EXTT12=
EXTT13=
EXTT14=
EXTT15=
EXTT16=
EXTT17=
EXTT18=
EXTT19=
EXTT20=
EXTT21=
EXTT22=
EXTT23=
EXTT24=
EXTT25=
EXTT26=
PLAYORDER=
